<svg width="476" height="721" viewBox="0 0 476 721" fill="none" xmlns="http://www.w3.org/2000/svg">
<g clip-path="url(#clip0)" filter="url(#filter0_d)">
<path d="M234.324 603.086C217.013 557.316 142.708 429.324 156.589 406.112C160.346 399.737 183.372 394.669 185.821 396.141C188.271 397.612 257.023 606.028 257.023 606.028C257.023 606.028 236.283 608.317 234.324 603.086Z" fill="#F4BEAB"/>
<path d="M190.884 638.557C203.949 643.625 231.711 639.538 238.733 633.327C240.04 632.182 241.183 631.365 242.163 630.875C242.816 630.548 243.306 630.384 243.796 630.221C245.265 629.894 246.245 630.221 246.898 630.711C248.042 631.528 248.205 632.836 248.205 632.836L266.005 632.182L265.842 630.057V628.423L265.189 609.624C257.513 583.143 218.81 616.817 218.81 616.817L209.828 617.961C210.154 617.961 177.003 633.163 190.884 638.557Z" fill="#925D9B"/>
<path d="M263.066 600.634C263.066 600.634 238.733 626.461 224.852 625.807C207.052 624.99 205.582 620.74 210.808 617.307C216.197 613.875 233.997 607.663 234.324 603.74C234.65 600.797 232.527 592.951 232.527 592.951C232.527 592.951 259.963 595.403 263.066 600.634Z" fill="#F4BEAB"/>
<path d="M246.245 217.638C248.205 228.917 251.634 251.475 279.397 242.321C297.36 236.436 308.955 232.84 314.998 227.936C318.264 225.32 320.06 222.215 320.06 218.291C320.713 207.176 338.35 110.242 338.024 105.828C337.861 104.194 337.044 98.7992 335.901 92.5876C333.941 81.3085 331.492 67.4141 331.492 67.4141C331.492 67.4141 329.532 39.9521 309.282 40.4425C305.526 40.4425 302.096 41.2598 298.667 42.5676C298.34 42.731 298.177 42.731 297.85 42.8945C297.687 42.8945 297.524 43.058 297.36 43.058C282.826 49.2696 272.374 63.8179 267.965 78.8566C262.413 97.8184 268.782 159.444 261.106 174.32C251.634 192.955 243.306 200.637 246.245 217.638Z" fill="#9760A0"/>
<g opacity="0.24">
<path opacity="0.24" d="M266.822 239.051L268.292 238.397C267.312 236.109 266.006 233.493 264.699 230.715C258.493 218.291 250.818 202.926 262.25 191.156C273.191 179.714 273.518 148.165 274.008 120.376C274.171 110.078 274.334 100.27 274.987 92.4239C277.927 57.933 302.26 52.2118 302.586 52.2118L302.26 50.5771C301.933 50.5771 276.457 56.6253 273.354 92.2605C272.701 100.107 272.538 109.915 272.375 120.213C272.048 147.838 271.721 179.06 261.106 190.012C249.022 202.599 257.187 219.272 263.229 231.532C264.536 234.311 265.842 236.926 266.822 239.051Z" fill="#0C0C0C"/>
</g>
<path d="M263.393 195.406C263.393 195.406 204.439 287.764 201.826 299.206C199.213 310.649 238.897 311.629 238.897 311.629L276.294 277.302L263.393 195.406Z" fill="#EFEAEA"/>
<path d="M243.632 302.476C243.632 302.476 242.652 287.273 218.646 284.004C206.398 282.369 201.499 294.302 202.969 299.206C204.439 304.11 217.83 312.61 218.646 312.61C219.626 312.61 243.632 309.341 243.632 309.341V302.476Z" fill="#D6D4D4"/>
<g opacity="0.24">
<path opacity="0.24" d="M279.233 182.329C266.495 102.232 299.483 60.2217 322.836 75.9142C346.189 91.6068 339.493 175.954 338.677 177.916C337.86 179.877 303.403 221.561 299.81 219.926C296.217 218.455 281.029 193.608 279.233 182.329Z" fill="#0C0C0C"/>
</g>
<path d="M275.64 597.201C275.64 597.201 308.465 621.557 312.221 634.961C315.814 648.529 307.649 651.798 298.013 649.183C288.378 646.731 261.269 632.509 255.39 609.461C253.92 603.74 262.576 598.018 262.576 598.018L275.64 597.201Z" fill="#BD79C6"/>
<path d="M185.821 396.14C186.964 393.525 204.602 384.207 211.461 386.986C220.442 390.583 250.328 429.324 257.023 480.651C265.025 540.969 275.64 598.018 275.64 598.018C275.64 598.018 304.219 624.663 301.28 632.346C298.34 639.865 278.253 629.894 268.128 622.865C263.392 619.596 259.636 612.24 257.35 607.009C236.12 557.643 184.678 398.592 185.821 396.14Z" fill="#FFCCB6"/>
<path d="M306.506 207.012C306.669 211.099 309.609 219.599 314.998 228.099C324.306 242.648 342.27 262.917 366.113 255.561C379.667 251.311 388.813 246.08 394.365 239.705C394.855 239.051 395.345 238.561 395.835 237.907C400.244 232.186 402.041 225.484 402.041 217.964C402.041 216.984 402.041 215.839 402.041 214.859C402.041 213.714 401.877 212.407 401.714 211.262C399.754 192.628 378.524 182.493 370.522 164.512C363.337 148.656 372.319 103.376 362.03 70.193C356.314 50.9042 340.31 29.4904 318.427 29C317.121 29 315.814 29 314.671 29.1635C309.119 29.9808 305.036 32.7597 302.096 36.1924C301.77 36.6828 301.28 37.1732 300.953 37.6636C299.973 39.1348 298.994 40.6059 298.34 42.0771C298.177 42.2406 298.014 42.5675 298.014 42.8944C298.014 43.0579 297.85 43.2214 297.85 43.3848C302.096 47.4714 305.363 52.3754 307.159 57.9331C307.486 58.7505 307.649 59.7312 307.812 60.5486C308.629 66.5967 305.199 71.8276 300.463 75.4238C297.361 77.7123 293.931 79.3469 290.175 80.3277C289.032 86.8663 297.687 93.4048 297.524 95.2029C296.707 99.7799 306.179 195.733 306.506 207.012Z" fill="#BD79C6"/>
<g opacity="0.24">
<path opacity="0.24" d="M334.431 133.78C327.246 160.588 337.371 183.964 343.576 187.887C344.066 188.214 309.282 185.598 306.669 175.627C299.973 149.309 337.371 122.828 334.431 133.78Z" fill="#0C0C0C"/>
</g>
<path d="M261.106 367.371C261.106 385.515 269.925 401.862 283.479 411.833C292.788 418.698 304.219 422.949 316.631 422.949H316.957C323.163 422.949 329.042 421.804 334.595 420.006C356.478 412.487 372.155 391.89 372.155 367.371C372.155 357.073 369.379 347.428 364.48 339.255C355.008 322.745 337.044 311.793 316.631 311.793C297.197 311.793 280.213 321.764 270.252 336.803C264.536 345.63 261.106 356.092 261.106 367.371Z" fill="#4183C4"/>
<path d="M323.816 146.858C323.816 146.858 319.733 183.637 339.983 186.906H281.683C281.683 186.906 304.382 181.022 296.054 144.242C296.054 144.242 314.344 136.396 323.816 146.858Z" fill="#FFCCB6"/>
<path d="M263.393 328.957L351.415 330.755C351.415 330.755 351.905 328.139 352.722 323.562C357.294 298.716 371.175 216.984 364.48 200.637C363.99 199.656 363.5 198.839 363.01 198.349L362.847 198.185C362.357 197.858 361.867 197.368 361.377 197.041C350.109 188.541 340.147 186.906 340.147 186.906H281.846C281.846 186.906 271.395 190.502 264.536 193.772C261.76 195.079 256.534 219.436 247.062 248.042C240.693 267.331 263.393 328.957 263.393 328.957Z" fill="white"/>
<path d="M330.185 184.781L301.116 222.868L282.009 186.906C282.009 186.906 265.515 190.829 263.719 195.079C262.576 197.695 300.463 231.859 300.463 231.859L357.294 193.608C356.967 193.608 347.496 182.166 330.185 184.781Z" fill="#F4E6E6"/>
<path d="M228.608 299.37C234.813 304.11 241.346 309.668 240.529 312.774L194.966 313.264C194.966 313.264 193.66 306.398 202.805 299.37C210.481 293.485 220.932 293.648 228.608 299.37Z" fill="#DDA794"/>
<path d="M156.426 406.112C156.426 406.112 188.271 398.102 220.116 418.208C227.138 422.621 238.243 428.343 244.776 435.862L254.411 434.064L255.717 433.9L317.121 422.948L334.758 420.006L323.653 405.621L270.415 336.966C270.415 336.966 201.662 364.101 167.531 394.833C167.041 395.323 166.551 395.65 166.061 396.14C162.305 399.246 159.202 402.679 156.426 406.112Z" fill="#4183C4"/>
<g opacity="0.24">
<path opacity="0.24" d="M220.116 418.371C227.138 422.785 238.243 428.506 244.939 436.026L317.12 422.948C323.326 422.948 329.205 421.804 334.758 420.006C356.641 412.487 372.318 391.89 372.318 367.371C372.318 357.072 369.542 347.428 364.643 339.255C360.56 339.091 357.457 339.091 357.457 339.091C357.457 339.091 361.213 392.217 323.653 405.621C285.929 419.025 220.116 418.371 220.116 418.371Z" fill="#0C0C0C"/>
</g>
<path d="M336.881 184.454L300.953 222.868L281.846 186.906L304.219 182.329L336.881 184.454Z" fill="#FFCCB6"/>
<g opacity="0.24">
<path opacity="0.24" d="M323.816 146.858C323.816 146.858 299.483 149.146 295.4 144.569C295.4 144.569 297.197 149.146 298.177 150.617C299.81 153.069 306.995 154.05 310.915 153.887C319.243 153.56 323.816 146.858 323.816 146.858Z" fill="#333232"/>
</g>
<path d="M278.58 105.828C278.58 131.002 291.155 151.435 309.445 151.435C327.736 151.435 342.597 131.002 342.597 105.828C342.597 80.6547 327.736 60.2217 309.445 60.2217C291.155 60.2217 278.58 80.6547 278.58 105.828Z" fill="#FFCCB6"/>
<path d="M307.649 122.338C307.812 122.338 307.812 122.338 307.976 122.338C308.302 122.175 308.465 121.848 308.302 121.521C307.812 120.377 304.383 117.598 302.423 116.29C303.73 115.636 305.036 114.492 306.179 112.694C308.302 109.751 310.099 105.011 308.955 100.761C308.792 100.434 308.465 100.271 308.139 100.271C307.812 100.434 307.649 100.761 307.649 101.088C308.629 104.848 306.996 109.098 305.036 111.876C303.566 113.838 301.933 115.309 300.79 115.309C300.463 115.309 300.3 115.473 300.3 115.8C300.3 116.127 300.3 116.29 300.463 116.453C302.75 118.088 306.506 121.03 306.832 122.011C307.159 122.175 307.486 122.338 307.649 122.338Z" fill="#DDA794"/>
<path d="M308.302 132.963C312.385 132.963 315.487 131.492 316.141 131.002C316.467 130.838 316.63 130.511 316.467 130.184C316.304 129.857 315.977 129.694 315.651 129.694C315.487 129.694 315.324 129.857 315.324 130.021C314.507 130.675 307.485 133.944 300.136 129.53C299.81 129.367 299.483 129.53 299.32 129.694C299.157 130.021 299.32 130.348 299.483 130.511C302.749 132.309 305.689 132.963 308.302 132.963Z" fill="#DDA794"/>
<path d="M337.371 94.7125C338.514 95.0395 334.921 90.6259 325.449 89.9721C322.673 89.8086 317.937 90.1355 316.957 91.2798C316.141 92.2606 316.467 94.7125 321.53 94.2222C325.123 93.8952 331.655 93.2414 337.371 94.7125Z" fill="#76497F"/>
<path d="M326.266 103.213C326.592 105.174 325.776 106.809 324.633 106.972C323.49 107.136 322.183 105.665 322.02 103.867C321.693 101.905 322.51 100.27 323.653 100.107C324.796 99.78 325.939 101.251 326.266 103.213Z" fill="#2B2B2B"/>
<path d="M330.838 100.27L320.877 99.4531L321.04 102.559L330.675 101.251L330.838 100.27Z" fill="#2B2B2B"/>
<path d="M282.009 95.2029C280.866 95.5299 283.969 90.6259 293.441 89.9721C296.217 89.8086 298.667 89.6452 300.137 90.4625C302.423 91.9337 299.973 94.7126 296.87 94.2222C293.441 93.7318 287.725 93.7318 282.009 95.2029Z" fill="#76497F"/>
<path d="M288.868 103.54C288.705 105.501 289.522 107.136 290.665 107.299C291.808 107.463 292.951 105.992 293.114 104.03C293.278 102.069 292.461 100.434 291.318 100.271C290.175 100.271 289.032 101.742 288.868 103.54Z" fill="#2B2B2B"/>
<path d="M285.602 100.924L295.238 99.2896L295.401 102.232L285.766 101.905L285.602 100.924Z" fill="#2B2B2B"/>
<path d="M307.975 137.54C309.772 137.54 311.078 136.559 311.078 136.559C311.405 136.396 311.405 135.905 311.078 135.742C310.915 135.415 310.425 135.415 310.262 135.742C310.262 135.742 308.302 137.377 305.199 135.742C304.873 135.579 304.546 135.742 304.383 135.905C304.219 136.232 304.383 136.559 304.546 136.723C305.852 137.377 306.996 137.54 307.975 137.54Z" fill="#DDA794"/>
<path d="M352.847 242C352.847 242 343.375 284.337 351.051 294.962C354.644 300.03 349.581 307.713 333.904 302.645C318.226 297.414 281.319 294.308 278.379 300.684C278.379 300.684 271.847 281.395 313 292.02C329.821 296.27 341.742 295.289 342.232 285.972C342.396 276.327 352.847 242 352.847 242Z" fill="#EFEAEA"/>
<path d="M364.48 200.637C364.48 200.637 394.5 304 387 323.562C379.636 342.77 284.133 323.562 284.133 323.562C284.133 323.562 271.231 295.773 284.133 291.85C297.034 287.927 348.802 303.129 350.599 291.85C352.232 280.571 337.534 254.09 342.76 237.253C347.822 220.253 364.48 200.637 364.48 200.637Z" fill="white"/>
<path d="M294.409 305.258C294.409 305.258 282.964 305.04 270.022 312.881C259.124 319.414 249.103 336.312 249.103 336.312L271.434 330.672C271.434 330.672 271.617 331.468 278.46 329.894C285.304 328.32 299.247 326.286 299.247 326.286L294.409 305.258Z" fill="#FFCCB6"/>
<path d="M232.985 341.443L326.158 316.266L328.973 326.681L235.8 351.858L232.985 341.443Z" fill="#8988E5"/>
<path d="M180.554 261.973L260.436 345.37L107.986 386.565L33.7712 305.362L180.554 261.973Z" fill="#8988E5"/>
<path d="M174.763 263.707L254.445 346.989L102.153 388.141L27.9379 306.938L174.763 263.707Z" fill="#C5C3F4"/>
<path d="M267.278 340.642L278.314 337.66C279.102 337.447 279.562 336.646 279.349 335.857L278.795 333.805C278.582 333.016 277.781 332.555 276.992 332.768L265.957 335.75C265.168 335.963 264.708 336.765 264.921 337.554L265.476 339.606C265.689 340.395 266.49 340.855 267.278 340.642Z" fill="#6867A5"/>
<path d="M290.927 334.252L301.805 331.313C302.593 331.1 303.053 330.298 302.84 329.509L302.328 327.616C302.115 326.827 301.314 326.366 300.525 326.579L289.647 329.518C288.859 329.731 288.399 330.533 288.612 331.322L289.124 333.215C289.18 334.047 289.981 334.508 290.927 334.252Z" fill="#6867A5"/>
<path d="M297.36 43.0579L304.873 60.5486H305.362H307.649L313.201 60.3851L311.405 58.0966L298.667 42.4041L298.34 42.0771C298.177 42.2406 298.014 42.5675 298.014 42.8945C297.687 42.8945 297.524 43.0579 297.36 43.0579Z" fill="#794E82"/>
<path d="M279.723 104.684C279.397 103.867 275.477 102.559 274.661 105.828C272.538 114.655 281.03 122.175 281.03 122.175C281.03 122.175 281.193 107.79 279.723 104.684Z" fill="#FFCCB6"/>
<path d="M105.228 304.584L127.627 298.582C129.362 298.117 130.401 296.316 129.936 294.579L129.555 293.158C129.09 291.421 127.289 290.38 125.554 290.845L103.155 296.847C101.419 297.312 100.381 299.114 100.846 300.85L101.227 302.272C101.692 304.008 103.493 305.049 105.228 304.584Z" fill="#F0F0FF"/>
<path d="M342.27 238.888C342.27 241.83 342.433 245.099 342.923 248.532C342.923 249.023 343.25 249.35 343.74 249.35H343.903C344.393 249.35 344.72 248.859 344.556 248.369C343.903 242.811 343.903 237.907 344.066 233.493C345.373 209.628 357.131 200.964 362.847 198.185C362.357 197.858 361.867 197.368 361.377 197.041C354.681 200.637 341.943 211.099 342.27 238.888Z" fill="#EFEAEA"/>
<path d="M276.784 112.04H276.947C277.11 111.876 277.274 111.713 277.11 111.549C275.967 108.934 276.131 107.79 276.457 107.299C276.784 106.809 277.437 106.809 277.6 106.809C277.764 106.809 278.09 106.646 278.09 106.482C278.09 106.319 277.927 105.992 277.764 105.992C277.764 105.992 276.621 105.992 275.967 106.809C275.314 107.79 275.477 109.588 276.457 111.876C276.457 111.876 276.621 112.04 276.784 112.04Z" fill="#DDA794"/>
<path d="M279.56 118.742H279.723C279.886 118.578 280.05 118.415 279.886 118.251L277.763 114.492C277.6 114.328 277.437 114.165 277.274 114.328C277.11 114.492 276.947 114.655 277.11 114.819L279.233 118.578C279.397 118.742 279.397 118.742 279.56 118.742Z" fill="#DDA794"/>
<g opacity="0.24">
<g opacity="0.24">
<path opacity="0.24" d="M165.898 395.977C217.176 392.381 244.122 420.006 254.41 434.228L255.717 434.064C245.428 420.006 218.646 391.727 167.204 394.669C166.878 395.16 166.388 395.487 165.898 395.977Z" fill="#0C0C0C"/>
</g>
</g>
<g opacity="0.24">
<path opacity="0.24" d="M304.546 60.7121C336.391 86.3759 333.615 136.396 333.451 137.867L342.76 119.232C342.76 119.232 325.449 53.6831 324.796 53.6831C324.469 54.01 319.08 58.587 313.364 60.5486L313.201 60.7121L307.649 60.8755H305.362C304.872 60.5486 304.546 60.7121 304.546 60.7121Z" fill="#0C0C0C"/>
</g>
<path d="M308.302 52.3753C308.302 52.3753 335.411 92.424 336.554 116.78C337.534 136.723 328.878 146.367 337.044 145.55C344.066 144.896 362.356 104.03 362.356 104.03C362.356 104.03 346.842 56.135 346.026 55.8081C345.209 55.6446 307.485 47.7983 308.302 52.3753Z" fill="#BD79C6"/>
<g opacity="0.24">
<g opacity="0.24">
<path opacity="0.24" d="M314.671 29.1635C331.328 35.702 348.149 48.7792 354.681 74.6065C358.764 90.9529 357.621 107.136 356.314 122.828C354.518 146.04 352.885 168.108 370.685 184.618C373.625 187.233 376.238 189.849 378.687 192.137C390.282 202.926 397.957 209.955 402.367 217.801C402.367 216.82 402.367 215.676 402.367 214.695C397.631 207.503 390.282 200.637 379.83 191.156C377.381 188.868 374.604 186.416 371.828 183.637C354.681 167.618 356.151 147.021 357.947 123.155C359.09 107.463 360.397 91.1163 356.314 74.443C349.945 49.2695 334.431 36.029 318.427 29C317.12 29 315.814 29 314.671 29.1635Z" fill="#0C0C0C"/>
</g>
</g>
<g opacity="0.24">
<g opacity="0.24">
<path opacity="0.24" d="M344.719 84.7413C348.965 101.415 347.169 117.107 345.536 132.309C343.086 153.723 340.8 173.993 358.437 190.339C361.377 192.955 363.99 195.57 366.439 197.858C385.22 215.186 393.712 223.032 394.691 239.542C395.181 238.888 395.671 238.398 396.161 237.744C394.691 221.561 385.546 213.224 367.582 196.551C365.133 194.262 362.357 191.81 359.58 189.031C342.596 173.175 344.719 154.214 347.169 132.309C348.965 116.944 350.598 101.251 346.352 84.0875C338.187 51.2312 320.55 39.9522 302.259 36.0291C301.933 36.5194 301.443 37.0098 301.116 37.5002C319.243 41.4234 336.554 52.3755 344.719 84.7413Z" fill="#0C0C0C"/>
</g>
</g>
</g>
<defs>
<filter id="filter0_d" x="-20" y="0" width="497" height="721" filterUnits="userSpaceOnUse" color-interpolation-filters="sRGB">
<feFlood flood-opacity="0" result="BackgroundImageFix"/>
<feColorMatrix in="SourceAlpha" type="matrix" values="0 0 0 0 0 0 0 0 0 0 0 0 0 0 0 0 0 0 127 0"/>
<feOffset dx="23" dy="21"/>
<feGaussianBlur stdDeviation="25"/>
<feColorMatrix type="matrix" values="0 0 0 0 0 0 0 0 0 0 0 0 0 0 0 0 0 0 0.25 0"/>
<feBlend mode="normal" in2="BackgroundImageFix" result="effect1_dropShadow"/>
<feBlend mode="normal" in="SourceGraphic" in2="effect1_dropShadow" result="shape"/>
</filter>
<clipPath id="clip0">
<rect width="397" height="621" fill="white" transform="matrix(-1 0 0 1 404 29)"/>
</clipPath>
</defs>
</svg>
