<svg width="25" height="25" viewBox="0 0 25 25" fill="none" xmlns="http://www.w3.org/2000/svg">
<path d="M12.4904 0.0120496C7.37449 0.0120496 2.5164 -0.443044 0.660804 4.31924C-0.105669 6.28614 0.00563854 8.84058 0.00563854 12.4982C0.00563854 15.7078 -0.0972155 18.7244 0.660804 20.6758C2.51218 25.4409 7.40972 24.9844 12.4876 24.9844C17.3865 24.9844 22.4377 25.4945 24.3158 20.6758C25.0837 18.6892 24.971 16.1728 24.971 12.4982C24.971 7.62043 25.2401 4.4714 22.8744 2.10717C20.4792 -0.288059 17.24 0.0120496 12.4848 0.0120496H12.4904ZM11.3717 2.26216C22.0432 2.24525 23.4014 1.05891 22.6518 17.5395C22.3855 23.3684 17.9473 22.7287 12.4918 22.7287C2.54458 22.7287 2.25856 22.4441 2.25856 12.4926C2.25856 2.4256 3.04758 2.26779 11.3717 2.25934V2.26216ZM19.1548 4.33473C18.3277 4.33473 17.6571 5.0054 17.6571 5.83246C17.6571 6.65952 18.3277 7.33018 19.1548 7.33018C19.9819 7.33018 20.6525 6.65952 20.6525 5.83246C20.6525 5.0054 19.9819 4.33473 19.1548 4.33473ZM12.4904 6.08607C8.94971 6.08607 6.07966 8.95753 6.07966 12.4982C6.07966 16.039 8.94971 18.909 12.4904 18.909C16.0311 18.909 18.8998 16.039 18.8998 12.4982C18.8998 8.95753 16.0311 6.08607 12.4904 6.08607ZM12.4904 8.33618C17.9924 8.33618 17.9994 16.6603 12.4904 16.6603C6.98985 16.6603 6.98139 8.33618 12.4904 8.33618Z" fill="url(#paint0_linear)"/>
<defs>
<linearGradient id="paint0_linear" x1="1.67721" y1="23.3713" x2="24.8388" y2="3.33711" gradientUnits="userSpaceOnUse">
<stop stop-color="#FFDD55"/>
<stop offset="0.5" stop-color="#FF543E"/>
<stop offset="1" stop-color="#C837AB"/>
</linearGradient>
</defs>
</svg>
