<svg width="25" height="25" viewBox="0 0 25 25" fill="none" xmlns="http://www.w3.org/2000/svg">
<path d="M24.2758 15.1541C26.0858 7.01945 18.9601 -0.370457 10.5918 1.04816C6.04889 -1.77136 0 1.41479 0 6.82051C0 8.07768 0.346811 9.25465 0.949826 10.2691C-0.732157 18.4225 6.45194 25.7062 14.8129 24.1907C15.7877 24.7063 16.9 25 18.0821 25C23.2364 25 26.5368 19.6536 24.2758 15.1541ZM12.5977 20.7077C10.1586 20.7077 7.77566 20.1192 6.3655 18.1048C4.2638 15.1322 7.03517 13.6449 8.39533 14.7781C9.53054 15.7353 9.17436 18.0507 12.5081 18.0507C13.9776 18.0507 15.7919 17.4237 15.7919 15.9665C15.7919 13.0345 9.28788 14.4219 6.70189 11.2253C5.75207 10.0546 5.57294 7.98915 6.73939 6.49138C8.77235 3.87496 14.7379 3.71561 17.3031 5.69146C19.6714 7.52461 19.0319 9.95771 17.1208 9.95771C14.8223 9.95771 16.0304 6.94967 12.3196 6.94967C9.62948 6.94967 8.57134 8.86302 10.4658 9.79418C12.9872 11.0461 19.5787 10.6556 19.5787 15.6301C19.5704 19.1266 16.197 20.7077 12.5977 20.7077Z" fill="#56CCF2"/>
</svg>
