<svg width="0" height="0" class="hidden">
  <symbol fill="none" xmlns="http://www.w3.org/2000/svg" viewBox="0 0 25 25" id="instagram">
    <path d="M12.49.012C7.374.012 2.516-.443.66 4.319-.105 6.286.007 8.841.007 12.5c0 3.209-.103 6.225.655 8.177 1.851 4.765 6.749 4.308 11.827 4.308 4.899 0 9.95.51 11.828-4.308.768-1.987.655-4.503.655-8.178 0-4.878.27-8.027-2.097-10.39C20.48-.289 17.24.011 12.484.011h.006zm-1.118 2.25c10.671-.017 12.03-1.203 11.28 15.277-.267 5.83-4.705 5.19-10.16 5.19-9.947 0-10.233-.285-10.233-10.236 0-10.067.789-10.225 9.113-10.234v.003zm7.783 2.073a1.498 1.498 0 100 2.995 1.498 1.498 0 000-2.995zM12.49 6.086a6.412 6.412 0 000 12.823 6.41 6.41 0 006.41-6.41 6.41 6.41 0 00-6.41-6.413zm0 2.25c5.502 0 5.51 8.324 0 8.324-5.5 0-5.509-8.324 0-8.324z" fill="url(#paint0_linear)"></path>
    <defs>
      <linearGradient id="paint0_linear" x1="1.677" y1="23.371" x2="24.839" y2="3.337" gradientUnits="userSpaceOnUse">
        <stop stop-color="#FD5"></stop>
        <stop offset=".5" stop-color="#FF543E"></stop>
        <stop offset="1" stop-color="#C837AB"></stop>
      </linearGradient>
    </defs>
  </symbol>
</svg>