<svg aria-hidden="true" style="position: absolute; width: 0; height: 0; overflow: hidden;" version="1.1"
    xmlns="http://www.w3.org/2000/svg"
    xmlns:xlink="http://www.w3.org/1999/xlink">
    <defs>
        <symbol id="icon-facebook" viewBox="0 0 32 32">
            <path fill="#2d4493" style="fill: var(--color1, #2d4493)" d="M27.688 0h-23.376c-2.381 0-4.312 1.931-4.312 4.312v23.376c0 2.381 1.931 4.312 4.312 4.312h11.529l0.020-11.435h-2.971c-0.386 0-0.699-0.312-0.701-0.698l-0.014-3.686c-0.002-0.388 0.313-0.704 0.701-0.704h2.966v-3.562c0-4.133 2.524-6.384 6.211-6.384h3.026c0.387 0 0.701 0.314 0.701 0.701v3.108c0 0.387-0.314 0.701-0.701 0.701l-1.857 0.001c-2.005 0-2.393 0.953-2.393 2.351v3.083h4.406c0.42 0 0.745 0.367 0.696 0.784l-0.437 3.686c-0.042 0.353-0.341 0.619-0.696 0.619h-3.95l-0.020 11.435h6.86c2.381 0 4.312-1.93 4.312-4.312v-23.376c0-2.382-1.931-4.312-4.312-4.312z"></path>
        </symbol>
        <symbol id="icon-instagram" viewBox="0 0 32 32">
            <path fill="url(#paint0_linear)" d="M15.988 0.015c-6.548 0-12.767-0.583-15.142 5.513-0.981 2.518-0.839 5.787-0.839 10.469 0 4.108-0.132 7.97 0.839 10.467 2.37 6.099 8.639 5.515 15.138 5.515 6.271 0 12.736 0.653 15.14-5.515 0.983-2.543 0.839-5.764 0.839-10.467 0-6.244 0.344-10.274-2.684-13.301-3.066-3.066-7.212-2.682-13.299-2.682h0.007zM14.556 2.896c13.66-0.022 15.398-1.54 14.439 19.555-0.341 7.461-6.022 6.642-13.005 6.642-12.732 0-13.099-0.364-13.099-13.102 0-12.886 1.010-13.088 11.665-13.099v0.004zM24.518 5.548c-1.059 0-1.917 0.858-1.917 1.917s0.858 1.917 1.917 1.917c1.059 0 1.917-0.858 1.917-1.917s-0.858-1.917-1.917-1.917zM15.988 7.79c-4.532 0-8.206 3.675-8.206 8.208s3.674 8.206 8.206 8.206 8.204-3.674 8.204-8.206c0-4.532-3.672-8.208-8.204-8.208zM15.988 10.67c7.043 0 7.052 10.655 0 10.655-7.041 0-7.052-10.655 0-10.655z"></path>
            <defs>
                <linearGradient id="paint0_linear" x1="1.67721" y1="23.3713" x2="24.8388" y2="3.33711" gradientUnits="userSpaceOnUse">
                    <stop stop-color="#FFDD55"/>
                    <stop offset="0.5" stop-color="#FF543E"/>
                    <stop offset="1" stop-color="#C837AB"/>
                </linearGradient>
            </defs>
        </symbol>
        <symbol id="icon-skype" viewBox="0 0 32 32">
            <path fill="#56ccf2" style="fill: var(--color2, #56ccf2)" d="M31.073 19.397c2.317-10.412-6.804-19.871-17.516-18.056-5.815-3.609-13.557 0.469-13.557 7.389 0 1.609 0.444 3.116 1.216 4.414-2.153 10.436 7.043 19.759 17.745 17.82 1.248 0.66 2.672 1.036 4.185 1.036 6.598 0 10.822-6.843 7.928-12.603zM16.125 26.506c-3.122 0-6.172-0.753-7.977-3.332-2.69-3.805 0.857-5.709 2.598-4.258 1.453 1.225 0.997 4.189 5.264 4.189 1.881 0 4.203-0.803 4.203-2.668 0-3.753-8.325-1.977-11.635-6.069-1.216-1.498-1.445-4.142 0.048-6.059 2.602-3.349 10.238-3.553 13.522-1.024 3.031 2.346 2.213 5.461-0.233 5.461-2.942 0-1.396-3.85-6.146-3.85-3.443 0-4.798 2.449-2.373 3.641 3.227 1.602 11.665 1.103 11.665 7.47-0.011 4.476-4.329 6.499-8.936 6.499z"></path>
        </symbol>
    </defs>
</svg>
